<?xml version="1.0" standalone="no"?>
<!DOCTYPE svg PUBLIC "-//W3C//DTD SVG 20010904//EN"
 "http://www.w3.org/TR/2001/REC-SVG-20010904/DTD/svg10.dtd">
<svg version="1.0" xmlns="http://www.w3.org/2000/svg"
 width="900.000000pt" height="210.000000pt" viewBox="0 0 900.000000 210.000000"
 preserveAspectRatio="xMidYMid meet">
<metadata>
Created by potrace 1.10, written by Peter Selinger 2001-2011
</metadata>
<g transform="translate(0.000000,210.000000) scale(0.100000,-0.100000)"
fill="#000000" stroke="none">
<path d="M6770 1961 c-31 -26 -35 -34 -34 -77 1 -40 6 -52 33 -76 67 -60 171
-13 171 77 0 41 -26 82 -61 94 -49 17 -72 13 -109 -18z"/>
<path d="M4155 1945 c-145 -26 -246 -100 -302 -223 -34 -74 -36 -204 -5 -272
47 -103 105 -155 307 -274 72 -42 137 -81 145 -86 8 -6 26 -15 39 -20 14 -6
55 -31 92 -55 107 -72 144 -135 137 -234 -7 -103 -66 -166 -189 -204 -31 -9
-69 -17 -85 -17 -70 1 -208 51 -269 98 -57 43 -135 187 -135 247 0 37 -11 55
-31 55 -19 0 -19 -9 -17 -232 3 -193 5 -233 17 -233 8 0 22 14 31 30 22 40 64
43 160 9 41 -14 114 -33 162 -42 74 -14 98 -14 170 -3 229 35 378 189 378 392
0 92 -29 163 -97 239 -57 63 -128 109 -329 215 -238 126 -296 170 -329 247
-35 85 -7 168 80 234 69 53 142 65 238 40 78 -20 133 -51 183 -102 45 -47 104
-158 104 -198 0 -42 21 -86 41 -86 18 0 19 11 19 229 0 126 -3 236 -6 245 -8
21 -30 9 -53 -30 -18 -30 -25 -34 -64 -34 -23 0 -47 4 -52 8 -17 15 -129 50
-180 57 -27 4 -59 8 -70 10 -11 1 -51 -3 -90 -10z"/>
<path d="M207 1906 c-8 -21 2 -26 52 -26 59 0 109 -27 133 -71 17 -31 18 -70
18 -599 0 -530 -2 -568 -19 -606 -24 -54 -55 -74 -111 -74 -47 0 -80 -13 -66
-27 12 -13 156 -21 368 -22 202 -1 228 2 228 24 0 16 -22 25 -61 25 -36 0 -86
24 -111 54 -16 19 -17 48 -18 304 0 155 3 282 8 282 15 0 40 -24 287 -269 139
-138 258 -265 265 -282 12 -28 11 -32 -15 -59 -19 -19 -39 -30 -57 -30 -21 0
-28 -5 -28 -19 0 -10 7 -22 16 -25 9 -3 140 -6 293 -6 217 0 281 3 296 13 25
19 13 33 -36 41 -80 13 -179 68 -254 142 -198 195 -559 582 -563 603 -3 20
463 485 520 518 38 22 38 22 48 2 8 -13 11 -158 10 -437 -1 -229 -1 -424 0
-432 1 -21 24 11 58 79 42 85 174 211 305 290 20 12 37 24 37 25 0 2 -9 29
-21 62 -35 101 -59 197 -59 243 0 85 47 211 94 250 9 7 16 20 16 27 0 12 -64
14 -397 12 -346 -3 -398 -5 -398 -18 0 -10 14 -17 42 -21 56 -7 73 -24 73 -69
0 -33 -10 -49 -74 -121 -135 -153 -441 -443 -457 -433 -5 3 -9 126 -9 273 0
256 1 269 21 295 29 37 56 50 119 56 40 4 55 9 55 20 0 22 -600 28 -608 6z"/>
<path d="M2275 1910 c-4 -6 0 -19 8 -28 49 -55 62 -185 27 -267 -27 -62 -114
-152 -205 -211 -49 -31 -75 -54 -75 -66 0 -17 18 -53 95 -193 15 -27 34 -57
41 -66 8 -8 14 -19 14 -24 0 -10 71 -117 84 -127 16 -11 30 1 60 50 76 120
115 222 116 300 0 52 -12 79 -53 113 -49 42 -31 49 119 49 114 0 136 -2 141
-16 4 -10 -4 -24 -20 -37 -14 -12 -57 -87 -96 -167 -38 -80 -99 -190 -134
-246 -35 -55 -66 -108 -70 -118 -10 -26 111 -149 180 -182 103 -51 201 -18
275 90 l33 49 3 171 c3 214 -2 206 149 206 279 0 450 -97 482 -273 23 -125
-33 -243 -142 -298 -74 -38 -159 -59 -244 -59 -91 0 -223 24 -235 43 -4 7 -8
31 -8 55 0 55 -18 55 -48 -2 -27 -51 -52 -76 -118 -120 -85 -56 -83 -56 213
-56 369 0 539 20 633 73 58 33 140 119 166 173 40 85 49 150 30 225 -29 113
-81 173 -193 226 -77 36 -91 57 -48 73 71 27 143 112 169 199 20 67 20 104 2
174 -34 129 -133 220 -293 269 -64 20 -95 21 -559 25 -366 4 -493 2 -499 -7z
m871 -76 c81 -20 129 -45 181 -95 86 -82 110 -212 57 -317 -61 -122 -196 -173
-426 -159 -151 9 -138 -17 -138 286 0 287 -2 278 68 292 66 12 194 9 258 -7z"/>
<path d="M1983 1889 c-18 -11 -43 -37 -55 -57 -32 -51 -32 -198 0 -289 46
-131 56 -136 131 -76 108 86 151 159 151 258 0 80 -24 134 -73 164 -45 27
-111 27 -154 0z"/>
<path d="M8461 1707 c-44 -94 -117 -184 -193 -240 -83 -60 -79 -78 14 -76 42
1 63 -3 69 -12 5 -8 9 -178 9 -379 0 -409 -1 -405 72 -463 76 -61 178 -46 262
40 32 33 76 100 76 118 0 16 -42 2 -51 -18 -13 -30 -63 -57 -103 -57 -44 0
-71 32 -85 100 -13 66 -13 622 -1 656 9 22 15 23 112 26 102 3 103 3 103 28 0
25 -1 25 -103 28 -101 3 -103 3 -113 30 -6 14 -9 79 -8 143 3 161 -12 180 -60
76z"/>
<path d="M5232 1459 c-175 -75 -284 -255 -285 -469 -2 -316 206 -537 465 -495
149 25 262 138 323 323 9 29 14 56 11 60 -11 11 -39 -13 -61 -51 -111 -199
-317 -236 -452 -83 -79 89 -113 190 -113 331 0 188 65 301 196 341 97 29 194
-33 194 -125 0 -42 33 -97 63 -105 84 -22 147 10 147 75 0 77 -53 146 -150
195 -48 25 -69 29 -160 31 -99 3 -109 2 -178 -28z"/>
<path d="M6060 1474 c-46 -21 -82 -36 -155 -66 -44 -18 -60 -30 -60 -44 0 -16
6 -19 47 -16 41 3 51 0 73 -24 l25 -27 0 -329 c0 -274 -3 -334 -15 -358 -19
-36 -43 -50 -89 -50 -38 0 -49 -9 -37 -28 6 -9 64 -12 237 -10 194 3 229 5
229 18 0 9 -13 17 -35 20 -47 8 -74 24 -94 55 -15 22 -17 61 -17 311 0 245 2
289 15 303 9 10 16 22 16 27 0 13 63 79 83 87 19 7 43 -1 102 -38 49 -30 84
-31 118 -5 53 42 44 132 -18 170 -52 32 -122 27 -176 -12 -24 -17 -50 -40 -58
-51 -8 -11 -22 -27 -33 -36 -10 -8 -18 -21 -18 -28 0 -17 -29 -17 -32 0 -1 6
-2 41 -3 77 l0 65 -35 2 c-19 1 -51 -5 -70 -13z"/>
<path d="M6825 1475 c-76 -34 -205 -85 -215 -85 -6 0 -10 -10 -8 -22 3 -21 8
-23 53 -20 42 3 54 0 70 -18 19 -21 20 -38 20 -349 0 -179 -3 -337 -8 -351
-13 -44 -35 -63 -79 -69 -29 -4 -43 -11 -43 -21 0 -13 33 -15 223 -18 217 -2
222 -2 222 18 0 16 -7 20 -37 20 -45 1 -64 13 -86 57 -15 28 -17 81 -17 453
l0 420 -32 -1 c-18 0 -46 -6 -63 -14z"/>
<path d="M7330 1460 c-36 -15 -90 -38 -120 -50 -63 -25 -80 -37 -80 -55 0 -9
17 -12 55 -11 61 1 68 -4 85 -64 13 -47 13 -1043 0 -1091 -13 -48 -46 -75 -98
-82 -50 -6 -57 -10 -49 -32 6 -13 39 -15 242 -15 l236 0 -3 23 c-2 18 -11 23
-51 27 -30 4 -55 14 -70 28 -21 21 -22 32 -25 196 -3 118 0 181 8 195 l11 22
32 -23 c18 -13 61 -27 98 -34 153 -26 297 31 389 153 202 267 136 720 -121
824 -55 22 -167 24 -215 4 -51 -21 -109 -69 -146 -121 -41 -57 -51 -47 -58 54
-5 73 -6 77 -30 79 -14 1 -54 -11 -90 -27z m442 -152 c53 -36 92 -93 122 -176
17 -48 20 -80 20 -207 0 -140 -2 -154 -26 -206 -54 -116 -117 -163 -218 -163
-81 0 -140 29 -185 92 l-30 44 -3 254 -4 254 44 41 c113 107 193 126 280 67z"/>
<path d="M1805 1228 c-32 -17 -104 -89 -135 -135 -83 -122 -78 -288 12 -397
45 -55 94 -76 177 -76 82 0 142 26 217 94 l48 43 -49 79 c-27 43 -64 102 -83
129 -18 28 -58 101 -89 163 -31 61 -61 112 -67 112 -6 0 -20 -6 -31 -12z"/>
<path d="M2148 671 c-6 -17 -113 -102 -165 -132 -95 -55 -82 -59 180 -59 127
0 238 4 245 8 15 10 -4 29 -53 52 -16 8 -59 43 -96 78 -60 56 -102 76 -111 53z"/>
</g>
</svg>
